<?xml version="1.0" encoding="utf-8"?>
<!-- Generator: Adobe Illustrator 15.0.0, SVG Export Plug-In . SVG Version: 6.00 Build 0)  -->
<!DOCTYPE svg PUBLIC "-//W3C//DTD SVG 1.1//EN" "http://www.w3.org/Graphics/SVG/1.1/DTD/svg11.dtd">
<svg version="1.1" id="Слой_1" xmlns="http://www.w3.org/2000/svg" xmlns:xlink="http://www.w3.org/1999/xlink" x="0px" y="0px"
	 width="17.232px" height="16.388px" viewBox="0 0 17.232 16.388" enable-background="new 0 0 17.232 16.388" xml:space="preserve">
<g>
	<path fill="#EE3D89" d="M8.615,3.256L9.688,6.58c0.134,0.413,0.519,0.693,0.952,0.693c0.001,0,0.001,0,0.002,0l3.494-0.007
		l-2.83,2.048c-0.353,0.255-0.5,0.708-0.364,1.121l1.086,3.32l-2.822-2.059c-0.176-0.128-0.383-0.192-0.59-0.192
		s-0.414,0.064-0.589,0.192l-2.821,2.059l1.086-3.32c0.135-0.413-0.012-0.866-0.364-1.121l-2.83-2.048l3.492,0.007
		c0,0,0.001,0,0.002,0c0.434,0,0.818-0.28,0.952-0.693L8.615,3.256 M8.615,0L6.591,6.272L0,6.259l5.34,3.864l-2.049,6.265
		l5.324-3.885l5.325,3.885l-2.049-6.265l5.341-3.864L10.64,6.272L8.615,0L8.615,0z"/>
</g>
</svg>
